<?xml version="1.0" encoding="UTF-8" standalone="no"?>
<!-- Created with Inkscape (http://www.inkscape.org/) -->

<svg
   xmlns:dc="http://purl.org/dc/elements/1.1/"
   xmlns:cc="http://creativecommons.org/ns#"
   xmlns:rdf="http://www.w3.org/1999/02/22-rdf-syntax-ns#"
   xmlns:svg="http://www.w3.org/2000/svg"
   xmlns="http://www.w3.org/2000/svg"
   xmlns:sodipodi="http://sodipodi.sourceforge.net/DTD/sodipodi-0.dtd"
   xmlns:inkscape="http://www.inkscape.org/namespaces/inkscape"
   width="744.09448819"
   height="1052.3622047"
   id="svg2"
   version="1.1"
   inkscape:version="0.48.5 r10040"
   sodipodi:docname="New document 1">
  <defs
     id="defs4" />
  <sodipodi:namedview
     id="base"
     pagecolor="#ffffff"
     bordercolor="#666666"
     borderopacity="1.0"
     inkscape:pageopacity="0.0"
     inkscape:pageshadow="2"
     inkscape:zoom="1.979899"
     inkscape:cx="333.17879"
     inkscape:cy="582.68677"
     inkscape:document-units="px"
     inkscape:current-layer="layer1"
     showgrid="false"
     inkscape:window-width="1366"
     inkscape:window-height="702"
     inkscape:window-x="0"
     inkscape:window-y="27"
     inkscape:window-maximized="1" />
  <metadata
     id="metadata7">
    <rdf:RDF>
      <cc:Work
         rdf:about="">
        <dc:format>image/svg+xml</dc:format>
        <dc:type
           rdf:resource="http://purl.org/dc/dcmitype/StillImage" />
        <dc:title></dc:title>
      </cc:Work>
    </rdf:RDF>
  </metadata>
  <g
     inkscape:label="Layer 1"
     inkscape:groupmode="layer"
     id="layer1">
    <path
       sodipodi:type="arc"
       style="fill:#000000;fill-rule:evenodd;stroke:#000000;stroke-width:1px;stroke-linecap:butt;stroke-linejoin:miter;stroke-opacity:1"
       id="path2985"
       sodipodi:cx="330.71429"
       sodipodi:cy="450.21933"
       sodipodi:rx="16.428572"
       sodipodi:ry="16.428572"
       d="m 347.14287,450.21933 a 16.428572,16.428572 0 1 1 -32.85715,0 16.428572,16.428572 0 1 1 32.85715,0 z"
       transform="matrix(0.59071729,0,0,0.59071729,128.42734,189.19586)" />
    <path
       sodipodi:type="arc"
       style="fill:#e9afaf"
       id="path2991"
       sodipodi:cx="307.85715"
       sodipodi:cy="453.25504"
       sodipodi:rx="2.1428571"
       sodipodi:ry="4.1071429"
       d="m 310,453.25504 a 2.1428571,4.1071429 0 1 1 -4.28571,0 2.1428571,4.1071429 0 1 1 4.28571,0 z"
       transform="translate(-1.7857143,-1.0714286)" />
    <path
       sodipodi:type="arc"
       style="fill:#e9afaf"
       id="path2991-5"
       sodipodi:cx="307.85715"
       sodipodi:cy="453.25504"
       sodipodi:rx="2.1428571"
       sodipodi:ry="4.1071429"
       d="m 310,453.25504 a 2.1428571,4.1071429 0 1 1 -4.28571,0 2.1428571,4.1071429 0 1 1 4.28571,0 z"
       transform="translate(31.78571,-1.2499966)" />
    <path
       sodipodi:type="arc"
       style="fill:#000000"
       id="path2987"
       sodipodi:cx="302.14285"
       sodipodi:cy="458.79074"
       sodipodi:rx="11.428572"
       sodipodi:ry="5"
       d="m 313.57142,458.79074 a 11.428572,5 0 1 1 -22.85714,0 11.428572,5 0 1 1 22.85714,0 z"
       transform="matrix(1.75,0,0,1,-204.96455,-1.7857342)" />
  </g>
</svg>
